<svg id="Layer_1" data-name="Layer 1" xmlns="http://www.w3.org/2000/svg" xmlns:xlink="http://www.w3.org/1999/xlink" viewBox="0 0 600 600"><defs><style>.cls-1{fill:url(#linear-gradient);}.cls-2{fill:url(#linear-gradient-2);}.cls-3{fill:#90caf9;}.cls-4{fill:#64b5f6;}.cls-5{fill:#78909c;}</style><linearGradient id="linear-gradient" x1="260.83" y1="276.02" x2="507.68" y2="427.11" gradientUnits="userSpaceOnUse"><stop offset="0" stop-color="#212121"/><stop offset="1" stop-color="#0d47a1"/></linearGradient><linearGradient id="linear-gradient-2" x1="76.86" y1="281.96" x2="306.43" y2="281.96" gradientUnits="userSpaceOnUse"><stop offset="0" stop-color="#2196f3"/><stop offset="1" stop-color="#1976d2"/></linearGradient></defs><title>Artboard 1</title><polygon class="cls-1" points="510.85 421.73 510.85 178.27 300 56.53 89.15 178.27 89.15 421.73 300 543.47 510.85 421.73"/><path class="cls-2" d="M322.42,224.84S380.19,183,461.66,195.26c0,0-40.7-27.11-87.51-18.73,0,0,60.61-50.71,89.08-61.75,0,0-179.56,16.19-300.16,109.35l50.65-11.8s-76.89,37.8-120.49,92.56l21.17,4.28s-55,33.56-92.64,74.24c0,0,21,10.53,47.8,2.31,0,0-12.33,14.3-23.65,23.55,0,0,16.48,32.71,67.5,39.87,0,0-32.8-40.2,17.7-77.22S216.57,406,216.57,406s9.6-63.12-63.62-64.27c0,0,15.15-12.68,44.19-5.77s16.7,21.22,69.14,21.32c0,0-74.09-47.29-16.16-91.41,44.65-34,83.74-14.56,83.74-14.56s-9.16,45.37-48.31,52.15c0,0,38.3,13,68.25-36.58s82.74-20,82.74-20S386.58,213.67,322.42,224.84Zm-181.1,80.94-14.51-6.08c29.11-29.8,64.92-49.49,64.92-49.49l-7.56,25.71L202.3,274Z"/><path class="cls-3" d="M110.32,470.28s42,10.52,62.73-30.77c0,0-16.32,54.77,28.58,49.23,0,0-34.17,24.65-71.7-3,0,0,14.49-1.14,21.36-9.94C151.29,475.84,131.24,486.05,110.32,470.28Z"/><path class="cls-4" d="M293.53,460.13s15.67-29.22,50.71-25.92c0,0-27.44-21.87-72.75-18.52,0,0,35.05-40.27,102.14-20.7,0,0-12.77-18.85-22.88-24.64,0,0,42.3,10.75,59.78,58.52,0,0-37.53-28.8-92.52-22.18,0,0,49.7,8,66.62,54.66C384.63,461.35,338.59,433.57,293.53,460.13Z"/><path class="cls-4" d="M302.8,359s24.8-34.75,92.77-18c0,0-21.54-18.4-59.92-26.27,0,0,64-46.68,147.21-5.39,0,0-46.83-10.24-92.9,6.68,0,0,55.15,23.38,64.49,86.89C454.45,402.86,379.47,322.72,302.8,359Z"/><path class="cls-5" d="M300,63.06,94.81,181.53v93.6l-11.32,8.54V175l2.83-1.63L300,50l101.56,58.64L387,113.28Zm149.85,73.46-11.78,6.26,67.12,38.75V418.47L300,536.94l-83.69-48.32-9.71,7.45L300,550,513.68,426.63l2.83-1.63V175Z"/></svg>