<svg width="14" height="16" viewBox="0 0 14 16" fill="none" xmlns="http://www.w3.org/2000/svg">
  <path d="M11.5 11.075C10.9 11.075 10.45 11.3 10 11.675L4.675 8.525C4.75 8.375 4.75 8.15 4.75 8C4.75 7.85 4.75 7.625 4.675 7.475L10 4.4C10.375 4.775 10.9 5 11.5 5C12.775 5 13.75 4.025 13.75 2.75C13.75 1.475 12.775 0.5 11.5 0.5C10.225 0.5 9.25 1.475 9.25 2.75C9.25 2.9 9.25 3.125 9.325 3.275L4 6.35C3.625 5.975 3.1 5.75 2.5 5.75C1.225 5.75 0.25 6.725 0.25 8C0.25 9.275 1.225 10.25 2.5 10.25C3.1 10.25 3.625 10.025 4 9.65L9.325 12.8C9.25 12.95 9.25 13.1 9.25 13.25C9.25 14.45 10.225 15.425 11.425 15.425C12.625 15.425 13.6 14.45 13.6 13.25C13.6 12.05 12.7 11.075 11.5 11.075Z"/>
</svg>
