<?xml version="1.0" encoding="utf-8"?>
<svg width="21" height="19" viewBox="0 0 21 19" fill="none" xmlns="http://www.w3.org/2000/svg">
  <path d="M16.206 11.9797C15.8027 11.6018 15.3163 11.3998 14.8008 11.3998C14.2894 11.3998 13.7988 11.5981 13.3789 11.9759L12.3282 12.9184C12.1691 13.0611 11.9387 13.0953 11.7451 13.0047C11.5954 12.9374 11.4541 12.8738 11.3335 12.8065C10.1029 12.1031 8.98455 11.1866 7.91194 10.0006C7.75493 9.82206 7.61348 9.65201 7.48553 9.48772C7.02274 8.89349 7.19746 8.06152 7.75396 7.55398C7.87037 7.44923 7.98677 7.34074 8.10318 7.23599C8.97624 6.45036 8.97624 5.43278 8.10318 4.64716L6.96821 3.62584C6.83933 3.50987 6.70629 3.39015 6.58157 3.27044C6.33212 3.03849 6.07021 2.79906 5.79997 2.5746C5.3967 2.21545 4.91444 2.02466 4.40724 2.02466C3.90004 2.02466 3.40946 2.21545 2.99372 2.5746C2.98956 2.57834 2.98956 2.57834 2.9854 2.58208L1.57188 3.86527C1.03974 4.34413 0.736244 4.92774 0.669726 5.60487C0.569948 6.69727 0.927485 7.71484 1.20187 8.38076C1.87538 10.0156 2.88147 11.5307 4.3823 13.1544C6.20324 15.111 8.3942 16.656 10.897 17.7447C11.8532 18.1525 13.1295 18.6351 14.5555 18.7174C14.6428 18.7211 14.7343 18.7248 14.8174 18.7248C15.7727 18.7248 16.5758 18.4176 17.2062 17.8068C17.2129 17.8004 17.2187 17.793 17.2255 17.7868C17.2311 17.7818 17.2354 17.7756 17.2405 17.7701C17.4549 17.5377 17.7016 17.3268 17.9604 17.1012C18.1392 16.9478 18.3221 16.787 18.5009 16.6186C18.9125 16.2333 19.1286 15.7844 19.1286 15.3242C19.1286 14.8603 18.9083 14.4151 18.4884 14.041L16.206 11.9797ZM17.6998 15.9139C17.6964 15.9172 17.6908 15.9222 17.6943 15.919C17.5322 16.0762 17.3659 16.2183 17.1871 16.3755C16.9169 16.6074 16.6425 16.8506 16.3847 17.1237C15.9649 17.5277 15.4701 17.7185 14.8216 17.7185C14.7592 17.7185 14.6927 17.7185 14.6303 17.7148C13.3956 17.6437 12.2481 17.2097 11.3875 16.8393C9.03444 15.8143 6.96821 14.359 5.2512 12.5147C3.83352 10.9771 2.88563 9.55546 2.25786 8.0291C1.87122 7.09757 1.72987 6.3718 1.79223 5.68718C1.8338 5.24947 2.02088 4.88659 2.36595 4.57608L3.78363 3.30037C3.98734 3.12828 4.20353 3.03475 4.41556 3.03475C4.67747 3.03475 4.8895 3.17691 5.02254 3.29663C5.0267 3.30037 5.03085 3.30411 5.03501 3.30785C5.28861 3.52109 5.52974 3.74182 5.78334 3.9775C5.91222 4.09722 6.04526 4.21693 6.1783 4.34039L7.31327 5.3617C7.75396 5.75826 7.75396 6.12488 7.31327 6.52144C7.19271 6.62993 7.0763 6.73842 6.95573 6.84317C6.60651 7.16491 6.27392 7.46419 5.91222 7.756C5.89837 7.76846 5.88414 7.78113 5.87058 7.79391C5.53655 8.10891 5.60191 8.41493 5.67525 8.62393C5.67941 8.63515 5.68357 8.64637 5.68772 8.6576C5.9829 9.30106 6.39864 9.90712 7.03057 10.6291L7.03473 10.6329C8.18217 11.9049 9.39198 12.8962 10.7265 13.6557C10.897 13.753 11.0716 13.8315 11.2379 13.9063C11.3875 13.9737 11.5289 14.0373 11.6495 14.1046C11.6661 14.1121 11.6827 14.1233 11.6993 14.1308C11.8407 14.1944 11.9737 14.2243 12.1109 14.2243C12.456 14.2243 12.6722 14.0298 12.7429 13.9662L14.1647 12.6867C14.306 12.5595 14.5305 12.4062 14.7925 12.4062C15.0502 12.4062 15.2622 12.5521 15.3911 12.6793C15.3953 12.683 15.3953 12.683 15.3994 12.6867L17.6902 14.7481C18.1165 15.128 18.1184 15.5191 17.6998 15.9139Z" fill="black" fill-opacity="0.87" stroke="black" stroke-opacity="0.87" stroke-width="0.25"/>
  <path d="M11.2827 5.21673C12.372 5.38134 13.3614 5.84523 14.1513 6.55603C14.9413 7.26684 15.4526 8.15721 15.6397 9.13737C15.6854 9.38429 15.9224 9.55638 16.1926 9.55638C16.2259 9.55638 16.255 9.55263 16.2882 9.54889C16.5959 9.504 16.7996 9.24213 16.7497 8.96529C16.5252 7.77937 15.9016 6.6982 14.9496 5.84149C13.9975 4.98478 12.796 4.42362 11.4781 4.22161C11.1705 4.17671 10.8836 4.36002 10.8296 4.63312C10.7755 4.90622 10.9751 5.17184 11.2827 5.21673Z" fill="black" fill-opacity="0.87" stroke="black" stroke-opacity="0.87" stroke-width="0.25"/>
  <path d="M20.3136 8.81906C19.9436 6.86622 18.9209 5.08921 17.3494 3.67509C15.7779 2.26096 13.8031 1.34066 11.633 1.0077C11.3295 0.959066 11.0426 1.14612 10.9886 1.41922C10.9387 1.69606 11.1424 1.95419 11.45 2.00283C13.3874 2.29837 15.1543 3.12515 16.5595 4.38589C17.9647 5.65037 18.8793 7.24033 19.2078 8.98367C19.2535 9.23058 19.4905 9.40267 19.7607 9.40267C19.794 9.40267 19.8231 9.39893 19.8563 9.39519C20.1598 9.35404 20.3677 9.09216 20.3136 8.81906Z" fill="black" fill-opacity="0.87" stroke="black" stroke-opacity="0.87" stroke-width="0.25"/>
</svg>
