<?xml version="1.0" encoding="utf-8"?>
<!-- Generator: Adobe Illustrator 23.0.3, SVG Export Plug-In . SVG Version: 6.00 Build 0)  -->
<svg version="1.1" id="Layer_1" xmlns="http://www.w3.org/2000/svg" xmlns:xlink="http://www.w3.org/1999/xlink" x="0px" y="0px"
	 viewBox="0 0 24 24" style="enable-background:new 0 0 24 24;" xml:space="preserve">
<path d="M4,15h2c1.1,0,2,0.9,2,2v2h1v-2c0-1.1,0.9-2,2-2h2c1.1,0,2,0.9,2,2v2h1v-2c0-1.1,0.9-2,2-2h2c1.1,0,2,0.9,2,2v2h1v3H1v-3h1
	v-2C2,15.9,2.9,15,4,15z M11,7l4,3l-4,3V7z M4,2h16c1.1,0,2,0.9,2,2v9.54C21.41,13.19,20.73,13,20,13V4H4v9
	c-0.73,0-1.41,0.19-2,0.54V4C2,2.9,2.9,2,4,2z"/>
</svg>
