<?xml version="1.0" encoding="utf-8"?>
<!-- Generator: Adobe Illustrator 20.1.0, SVG Export Plug-In . SVG Version: 6.00 Build 0)  -->
<svg version="1.1" id="Layer_1" xmlns="http://www.w3.org/2000/svg" xmlns:xlink="http://www.w3.org/1999/xlink" x="0px" y="0px"
	 viewBox="0 0 24 24" style="enable-background:new 0 0 24 24;" xml:space="preserve">
<path d="M12,15.5c-2,0-3.6-1.6-3.6-3.5S10,8.5,12,8.5s3.6,1.6,3.6,3.5S14,15.5,12,15.5z M19.5,13c0-0.3,0.1-0.6,0.1-1
	c0-0.3,0-0.7-0.1-1l2.2-1.7c0.2-0.2,0.2-0.4,0.1-0.6l-2.1-3.5C19.6,5,19.3,4.9,19.1,5l-2.6,1c-0.5-0.4-1.1-0.7-1.7-1l-0.4-2.6
	C14.5,2.2,14.2,2,14,2H9.9C9.7,2,9.5,2.2,9.4,2.4L9.1,5.1c-0.6,0.3-1.2,0.6-1.7,1l-2.6-1C4.5,5,4.3,5.1,4.1,5.3l-2,3.4
	C1.9,8.9,2,9.2,2.2,9.4L4.4,11c0,0.3-0.1,0.6-0.1,1c0,0.3,0,0.7,0.1,1l-2.2,1.7C2,14.9,2,15.1,2.1,15.3l2.1,3.5
	C4.3,19,4.6,19.1,4.8,19l2.6-1c0.5,0.4,1.1,0.7,1.7,1l0.4,2.6c0,0.2,0.3,0.4,0.5,0.4h4.1c0.3,0,0.5-0.2,0.5-0.4L15,19
	c0.6-0.3,1.2-0.6,1.7-1l2.6,1c0.2,0.1,0.5,0,0.6-0.2l2.1-3.5c0.1-0.2,0.1-0.5-0.1-0.6L19.5,13z"/>
</svg>
