<?xml version="1.0" encoding="utf-8"?>
<svg version="1.1" id="Layer_1" xmlns="http://www.w3.org/2000/svg" xmlns:xlink="http://www.w3.org/1999/xlink" width="40" height="40" viewBox="0 0 60 60">
  <path d="M12.4138 0C5.56863 0 0 5.56863 0 12.4138C0 19.259 5.56863 24.8276 12.4138 24.8276C19.259 24.8276 24.8276 19.259 24.8276 12.4138C24.8276 5.56863 19.259 0 12.4138 0ZM12.4138 22.7586C6.70966 22.7586 2.06897 18.1179 2.06897 12.4138C2.06897 6.70966 6.70966 2.06897 12.4138 2.06897C18.1179 2.06897 22.7586 6.70966 22.7586 12.4138C22.7586 18.1179 18.1179 22.7586 12.4138 22.7586Z" transform="translate(35.1724 35.1724)" />
  <path d="M20.6897 0H18.6207H11.3793H9.31035H0V9.31035V11.3793V18.6207V20.6897V30H9.31035H11.3793H20.6897V20.6897V18.6207V11.3793H27.9311H30H39.3104V0H30H27.9311H20.6897ZM30 2.06897H37.2414V9.31035H30V2.06897ZM11.3793 2.06897H18.6207V9.31035H11.3793V2.06897ZM2.06897 2.06897H9.31035V9.31035H2.06897V2.06897ZM2.06897 11.3793H9.31035V18.6207H2.06897V11.3793ZM9.31035 27.9311H2.06897V20.6897H9.31035V27.9311ZM18.6207 27.9311H11.3793V20.6897H18.6207V27.9311ZM18.6207 18.6207H11.3793V11.3793H18.6207V18.6207ZM27.9311 9.31035H20.6897V2.06897H27.9311V9.31035Z" transform="translate(7.24146 21.7241)" />
  <path d="M34.138 56.8966H2.06897V16.5517H51.7242V30C51.7242 30.5721 52.1866 31.0345 52.7587 31.0345C53.3307 31.0345 53.7932 30.5721 53.7932 30V15.5173V5.17242C53.7932 4.60035 53.3307 4.13793 52.7587 4.13793H47.5863V1.03448C47.5863 0.462414 47.1238 0 46.5518 0H39.3104C38.7383 0 38.2759 0.462414 38.2759 1.03448V4.13793H15.5173V1.03448C15.5173 0.462414 15.0548 0 14.4828 0H7.24139C6.66932 0 6.2069 0.462414 6.2069 1.03448V4.13793H1.03448C0.462414 4.13793 0 4.60035 0 5.17242V15.5173V57.9311C0 58.5032 0.462414 58.9656 1.03448 58.9656H34.138C34.71 58.9656 35.1724 58.5032 35.1724 57.9311C35.1724 57.359 34.71 56.8966 34.138 56.8966ZM40.3449 2.06897H45.5173V5.17242V8.27587H40.3449V5.17242V2.06897ZM8.27587 2.06897H13.4483V5.17242V8.27587H8.27587V5.17242V2.06897ZM2.06897 6.2069H6.2069V9.31035C6.2069 9.88242 6.66932 10.3448 7.24139 10.3448H14.4828C15.0548 10.3448 15.5173 9.88242 15.5173 9.31035V6.2069H38.2759V9.31035C38.2759 9.88242 38.7383 10.3448 39.3104 10.3448H46.5518C47.1238 10.3448 47.5863 9.88242 47.5863 9.31035V6.2069H51.7242V14.4828H2.06897V6.2069Z" />
  <path d="M4.21705 6.18561L1.4961 3.56557L0 5.0062L3.59064 8.4637L3.59476 8.4597L4.25027 9.09091L12.7273 1.46863L11.2022 0L4.21705 6.18561Z" transform="translate(41.8184 43.6362)" />
</svg>
