<?xml version="1.0" encoding="utf-8"?>
<svg version="1.1" id="Layer_1" xmlns="http://www.w3.org/2000/svg" xmlns:xlink="http://www.w3.org/1999/xlink" width="40" height="40" viewBox="0 0 40 40">
  <path d="M8.27586 0C3.71241 0 0 3.71241 0 8.27586C0 12.8393 3.71241 16.5517 8.27586 16.5517C12.8393 16.5517 16.5517 12.8393 16.5517 8.27586C16.5517 3.71241 12.8393 0 8.27586 0ZM8.27586 15.1724C4.4731 15.1724 1.37931 12.0786 1.37931 8.27586C1.37931 4.4731 4.4731 1.37931 8.27586 1.37931C12.0786 1.37931 15.1724 4.4731 15.1724 8.27586C15.1724 12.0786 12.0786 15.1724 8.27586 15.1724Z" transform="translate(23.4483 23.4482)" fill-opacity="0.27"/>
  <path d="M4.82759 4.13793H1.37931V0.689655C1.37931 0.308276 1.07103 0 0.689655 0C0.308276 0 0 0.308276 0 0.689655V4.82759C0 5.20897 0.308276 5.51724 0.689655 5.51724H4.82759C5.20897 5.51724 5.51724 5.20897 5.51724 4.82759C5.51724 4.44621 5.20897 4.13793 4.82759 4.13793Z" transform="translate(34.658 27.8423) rotate(45)" fill-opacity="0.27"/>
  <path d="M4.82759 4.13793H1.37931V0.689655C1.37931 0.308276 1.07103 0 0.689655 0C0.308276 0 0 0.308276 0 0.689655V4.82759C0 5.20897 0.308276 5.51724 0.689655 5.51724H4.82759C5.20897 5.51724 5.51724 5.20897 5.51724 4.82759C5.51724 4.44621 5.20897 4.13793 4.82759 4.13793Z" transform="translate(28.7516 35.645) rotate(-134.794)" fill-opacity="0.27"/>
  <path d="M13.7931 0H12.4138H7.58621H6.2069H0V6.2069V7.58621V12.4138V13.7931V20H6.2069H7.58621H13.7931V13.7931V12.4138V7.58621H18.6207H20H26.2069V0H20H18.6207H13.7931ZM20 1.37931H24.8276V6.2069H20V1.37931ZM7.58621 1.37931H12.4138V6.2069H7.58621V1.37931ZM1.37931 1.37931H6.2069V6.2069H1.37931V1.37931ZM1.37931 7.58621H6.2069V12.4138H1.37931V7.58621ZM6.2069 18.6207H1.37931V13.7931H6.2069V18.6207ZM12.4138 18.6207H7.58621V13.7931H12.4138V18.6207ZM12.4138 12.4138H7.58621V7.58621H12.4138V12.4138ZM18.6207 6.2069H13.7931V1.37931H18.6207V6.2069Z" transform="translate(4.82758 14.4829)" fill-opacity="0.27"/>
  <path d="M22.7586 37.931H1.37931V11.0345H34.4828V20C34.4828 20.3814 34.791 20.6897 35.1724 20.6897C35.5538 20.6897 35.8621 20.3814 35.8621 20V10.3448V3.44828C35.8621 3.0669 35.5538 2.75862 35.1724 2.75862H31.7241V0.689655C31.7241 0.308276 31.4159 0 31.0345 0H26.2069C25.8255 0 25.5172 0.308276 25.5172 0.689655V2.75862H10.3448V0.689655C10.3448 0.308276 10.0366 0 9.65517 0H4.82759C4.44621 0 4.13793 0.308276 4.13793 0.689655V2.75862H0.689655C0.308276 2.75862 0 3.0669 0 3.44828V10.3448V38.6207C0 39.0021 0.308276 39.3103 0.689655 39.3103H22.7586C23.14 39.3103 23.4483 39.0021 23.4483 38.6207C23.4483 38.2393 23.14 37.931 22.7586 37.931ZM26.8966 1.37931H30.3448V3.44828V5.51724H26.8966V3.44828V1.37931ZM5.51724 1.37931H8.96552V3.44828V5.51724H5.51724V3.44828V1.37931ZM1.37931 4.13793H4.13793V6.2069C4.13793 6.58828 4.44621 6.89655 4.82759 6.89655H9.65517C10.0366 6.89655 10.3448 6.58828 10.3448 6.2069V4.13793H25.5172V6.2069C25.5172 6.58828 25.8255 6.89655 26.2069 6.89655H31.0345C31.4159 6.89655 31.7241 6.58828 31.7241 6.2069V4.13793H34.4828V9.65517H1.37931V4.13793Z" fill-opacity="0.27"/>
</svg>
