<?xml version="1.0" encoding="utf-8"?>
<svg version="1.1" id="Layer_1" xmlns="http://www.w3.org/2000/svg" xmlns:xlink="http://www.w3.org/1999/xlink" width="40" height="40" viewBox="0 0 40 40">
  <path d="M20 0C8.97167 0 0 8.97223 0 20.0006C0.000928264 31.0278 8.97297 39.9994 20 39.9994C31.028 39.9994 40 31.028 40 20.0004C39.9998 8.97223 31.028 0 20 0ZM20 2.78479C24.0883 2.78479 27.8474 4.21822 30.8035 6.60775L6.60794 30.8031C4.21877 27.8472 2.78516 24.0883 2.78479 20.0004C2.78479 10.5078 10.5076 2.78479 20 2.78479ZM20 37.2146C15.5967 37.2146 11.5749 35.5519 8.52722 32.8225L32.8227 8.52703C35.5523 11.5747 37.215 15.5969 37.215 20.0006C37.215 29.4924 29.4922 37.2146 20 37.2146Z" fill-opacity="0.27"/>
</svg>

